<svg xmlns="http://www.w3.org/2000/svg" width="760" height="760" viewBox="0 0 760 760" fill="none">
  <g stroke="currentColor" stroke-width="3" stroke-linecap="round" stroke-linejoin="round" opacity=".92">
    <!-- laptop -->
    <g transform="translate(60 64) rotate(-5)">
      <rect x="0" y="0" width="132" height="82" rx="9"/>
      <path d="M-12 91h156l-13 15H1L-12 91Z"/>
      <path d="M49 92h36"/>
      <path d="M25 25h82M25 43h56" opacity=".72"/>
    </g>
    <!-- spreadsheet -->
    <g transform="translate(294 44) rotate(7)">
      <rect x="0" y="0" width="112" height="126" rx="10"/>
      <path d="M16 24h80M16 52h80M16 80h80M16 108h80M42 24v84M70 24v84"/>
      <path d="M83 9l13 13"/>
    </g>
    <!-- certificate -->
    <g transform="translate(536 58) rotate(-4)">
      <rect x="0" y="0" width="130" height="92" rx="8"/>
      <circle cx="33" cy="47" r="17"/>
      <path d="M25 65l-8 23 16-8 13 10 5-25M64 29h45M64 47h38M64 65h29"/>
    </g>
    <!-- book -->
    <g transform="translate(74 272) rotate(5)">
      <path d="M0 12c35-16 70-9 88 5v95c-21-15-52-20-88-6V12Z"/>
      <path d="M176 12c-35-16-70-9-88 5v95c21-15 52-20 88-6V12Z"/>
      <path d="M88 17v95M18 39c20-6 38-3 54 4M18 61c20-6 38-3 54 4M105 43c17-7 35-8 53-2M105 66c17-7 35-8 53-2"/>
    </g>
    <!-- chart -->
    <g transform="translate(350 250) rotate(-4)">
      <rect x="0" y="0" width="140" height="112" rx="10"/>
      <path d="M24 87V65M55 87V44M86 87V27M117 87V54"/>
      <path d="M21 45l31-17 31 9 34-22"/>
      <circle cx="21" cy="45" r="4"/><circle cx="52" cy="28" r="4"/><circle cx="83" cy="37" r="4"/><circle cx="117" cy="15" r="4"/>
    </g>
    <!-- palette -->
    <g transform="translate(572 255) rotate(8)">
      <path d="M59 0c42 0 75 27 75 62 0 23-15 35-35 35H82c-12 0-18 11-12 20 8 12 0 25-17 25C22 142 0 112 0 75 0 34 25 0 59 0Z"/>
      <circle cx="32" cy="50" r="8"/><circle cx="60" cy="28" r="8"/><circle cx="91" cy="38" r="8"/><circle cx="107" cy="68" r="8"/>
    </g>
    <!-- graduation cap -->
    <g transform="translate(64 500) rotate(-7)">
      <path d="M0 42 78 0l78 42-78 42L0 42Z"/>
      <path d="M32 60v38c30 19 62 19 92 0V60M156 42v54"/>
      <circle cx="156" cy="105" r="6"/>
    </g>
    <!-- calculator -->
    <g transform="translate(304 495) rotate(5)">
      <rect x="0" y="0" width="112" height="150" rx="12"/>
      <rect x="16" y="17" width="80" height="32" rx="4"/>
      <g>
        <rect x="16" y="66" width="18" height="18" rx="3"/><rect x="47" y="66" width="18" height="18" rx="3"/><rect x="78" y="66" width="18" height="18" rx="3"/>
        <rect x="16" y="97" width="18" height="18" rx="3"/><rect x="47" y="97" width="18" height="18" rx="3"/><rect x="78" y="97" width="18" height="18" rx="3"/>
        <rect x="16" y="128" width="18" height="18" rx="3"/><rect x="47" y="128" width="49" height="18" rx="3"/>
      </g>
    </g>
    <!-- social media phone -->
    <g transform="translate(540 486) rotate(-5)">
      <rect x="0" y="0" width="112" height="172" rx="18"/>
      <path d="M42 15h28M46 153h20"/>
      <circle cx="36" cy="74" r="16"/><path d="M68 57h23M68 73h18M22 112h69M22 128h49"/>
      <path d="M87 92c10-7 21 5 10 15L87 117l-10-10c-11-10 0-22 10-15Z"/>
    </g>
    <!-- decorative education marks -->
    <path d="M224 159l8 16 18 3-13 13 3 18-16-8-16 8 3-18-13-13 18-3 8-16Z"/>
    <path d="M500 183c10-17 31-18 41-1 8 14 2 30-12 36v13h-24v-13c-17-7-22-22-13-35M505 245h24"/>
    <path d="M229 412c28-21 50-13 64 9M230 412l18 2-6-17" stroke-dasharray="6 9"/>
    <path d="M506 418c27-18 53-13 68 10M574 428l-18 1 6-17" stroke-dasharray="6 9"/>
    <path d="M204 691l8 15 17 3-12 12 3 17-16-8-15 8 3-17-13-12 17-3 8-15Z"/>
    <path d="M463 690l7 14 16 2-12 11 3 16-14-7-14 7 3-16-12-11 16-2 7-14Z"/>
  </g>
</svg>
